# xmcd
#
# Track frame offsets:
#	150
#	24973
#	44058
#	68229
#	88231
#	99743
#	121896
#	135918
#	157621
#	173442
#	189819
#	210021
#	221988
#	238603
#	254411
#
# Disc length: 3610 seconds
#
# Revision: 0
# Processed by: cddbd v1.5.2PL0 Copyright (c) Steve Scherf et al.
# Submitted via: audiograbber 1.83.01
#
DISCID=bf0e180f
DTITLE=Blue Rose - Blue Rose Nuggets 47
DYEAR=2008
DGENRE=Country Rock
TTITLE0=Susan Cowsill - River Of Love
TTITLE1=Greg Trooper - Nobody In The Whole Wide World
TTITLE2=Joseph Parsons - Myriad Of Things
TTITLE3=Joseph Parsons - Skipping Stone
TTITLE4=Mic Harrison - Hole In My Heart
TTITLE5=The Bottle Rockets - Happy Anniversary
TTITLE6=Paul Thorn - Weeds In My Roses
TTITLE7=Leroy Stagger and The Wildflowers - Depression River
TTITLE8=Russ Tolaman - Don´t Raid On Me Today
TTITLE9=Cindy Bullens - Labour Of Love
TTITLE10=Jason and The Scorchers - Harvest Moon
TTITLE11=The Dustin Dentall Dutfit - Take The Money
TTITLE12=Parsons Thibaud - Long Champlain
TTITLE13=John P. Stohrm - Home
TTITLE14=James McMurtry - Freeway View
EXTD=
EXTT0=
EXTT1=
EXTT2=
EXTT3=
EXTT4=
EXTT5=
EXTT6=
EXTT7=
EXTT8=
EXTT9=
EXTT10=
EXTT11=
EXTT12=
EXTT13=
EXTT14=
PLAYORDER=
